<svg width="20" height="23" viewBox="0 0 20 23" fill="none" xmlns="http://www.w3.org/2000/svg">
<path d="M15.7492 3.775C14.8947 2.79953 14.4239 1.54679 14.4242 0.25H10.5617V15.75C10.5319 16.5888 10.1778 17.3833 9.57393 17.9662C8.97004 18.5491 8.16353 18.8749 7.32422 18.875C5.54922 18.875 4.07422 17.425 4.07422 15.625C4.07422 13.475 6.14922 11.8625 8.28672 12.525V8.575C3.97422 8 0.199219 11.35 0.199219 15.625C0.199219 19.7875 3.64922 22.75 7.31172 22.75C11.2367 22.75 14.4242 19.5625 14.4242 15.625V7.7625C15.9905 8.88731 17.8709 9.49081 19.7992 9.4875V5.625C19.7992 5.625 17.4492 5.7375 15.7492 3.775Z" fill="black"/>
</svg>
